<mxfile host="app.diagrams.net" modified="2023-04-10T18:19:41.315Z" agent="Mozilla/5.0 (Windows NT 10.0; Win64; x64) AppleWebKit/537.36 (KHTML, like Gecko) Chrome/111.0.0.0 Safari/537.36" etag="ICgTGkvRzEIdOiL6xM3b" version="21.1.5" type="device">
  <diagram name="PÃ¡gina-1" id="yIGx5nsOvTSglY1SuwqG">
    <mxGraphModel dx="491" dy="503" grid="1" gridSize="10" guides="1" tooltips="1" connect="1" arrows="1" fold="1" page="1" pageScale="1" pageWidth="827" pageHeight="1169" math="0" shadow="0">
      <root>
        <mxCell id="0" />
        <mxCell id="1" parent="0" />
        <mxCell id="3DccciUra17WeY1O9k2c-6" style="edgeStyle=orthogonalEdgeStyle;rounded=0;orthogonalLoop=1;jettySize=auto;html=1;exitX=0.5;exitY=1;exitDx=0;exitDy=0;exitPerimeter=0;entryX=0.5;entryY=0;entryDx=0;entryDy=0;" edge="1" parent="1" source="3DccciUra17WeY1O9k2c-1" target="3DccciUra17WeY1O9k2c-4">
          <mxGeometry relative="1" as="geometry" />
        </mxCell>
        <mxCell id="3DccciUra17WeY1O9k2c-1" value="Inicio" style="strokeWidth=2;html=1;shape=mxgraph.flowchart.start_1;whiteSpace=wrap;gradientColor=none;" vertex="1" parent="1">
          <mxGeometry x="364" y="10" width="100" height="60" as="geometry" />
        </mxCell>
        <mxCell id="3DccciUra17WeY1O9k2c-9" style="edgeStyle=orthogonalEdgeStyle;rounded=0;orthogonalLoop=1;jettySize=auto;html=1;exitX=0.5;exitY=1;exitDx=0;exitDy=0;exitPerimeter=0;" edge="1" parent="1" source="3DccciUra17WeY1O9k2c-3" target="3DccciUra17WeY1O9k2c-8">
          <mxGeometry relative="1" as="geometry" />
        </mxCell>
        <mxCell id="3DccciUra17WeY1O9k2c-12" style="edgeStyle=orthogonalEdgeStyle;rounded=0;orthogonalLoop=1;jettySize=auto;html=1;exitX=0;exitY=0.5;exitDx=0;exitDy=0;exitPerimeter=0;entryX=0.5;entryY=0;entryDx=0;entryDy=0;entryPerimeter=0;" edge="1" parent="1" source="3DccciUra17WeY1O9k2c-3" target="3DccciUra17WeY1O9k2c-14">
          <mxGeometry relative="1" as="geometry">
            <mxPoint x="260" y="430" as="targetPoint" />
          </mxGeometry>
        </mxCell>
        <mxCell id="3DccciUra17WeY1O9k2c-3" value="enquanto&lt;br&gt;i &amp;lt; 21" style="strokeWidth=2;html=1;shape=mxgraph.flowchart.decision;whiteSpace=wrap;" vertex="1" parent="1">
          <mxGeometry x="364" y="170" width="100" height="100" as="geometry" />
        </mxCell>
        <mxCell id="3DccciUra17WeY1O9k2c-5" style="edgeStyle=orthogonalEdgeStyle;rounded=0;orthogonalLoop=1;jettySize=auto;html=1;exitX=0.5;exitY=1;exitDx=0;exitDy=0;entryX=0.5;entryY=0;entryDx=0;entryDy=0;entryPerimeter=0;" edge="1" parent="1" source="3DccciUra17WeY1O9k2c-4" target="3DccciUra17WeY1O9k2c-3">
          <mxGeometry relative="1" as="geometry" />
        </mxCell>
        <mxCell id="3DccciUra17WeY1O9k2c-4" value="i &amp;lt;- 10" style="rounded=1;whiteSpace=wrap;html=1;absoluteArcSize=1;arcSize=14;strokeWidth=2;" vertex="1" parent="1">
          <mxGeometry x="369" y="110" width="90" height="30" as="geometry" />
        </mxCell>
        <mxCell id="3DccciUra17WeY1O9k2c-15" style="edgeStyle=orthogonalEdgeStyle;rounded=0;orthogonalLoop=1;jettySize=auto;html=1;exitX=0.5;exitY=1;exitDx=0;exitDy=0;entryX=1;entryY=0.5;entryDx=0;entryDy=0;entryPerimeter=0;" edge="1" parent="1" source="3DccciUra17WeY1O9k2c-7" target="3DccciUra17WeY1O9k2c-3">
          <mxGeometry relative="1" as="geometry">
            <Array as="points">
              <mxPoint x="413" y="450" />
              <mxPoint x="500" y="450" />
              <mxPoint x="500" y="220" />
            </Array>
          </mxGeometry>
        </mxCell>
        <mxCell id="3DccciUra17WeY1O9k2c-7" value="i++" style="rounded=1;whiteSpace=wrap;html=1;absoluteArcSize=1;arcSize=14;strokeWidth=2;" vertex="1" parent="1">
          <mxGeometry x="358" y="400" width="110" height="30" as="geometry" />
        </mxCell>
        <mxCell id="3DccciUra17WeY1O9k2c-10" style="edgeStyle=orthogonalEdgeStyle;rounded=0;orthogonalLoop=1;jettySize=auto;html=1;exitX=0.5;exitY=1;exitDx=0;exitDy=0;exitPerimeter=0;entryX=0.5;entryY=0;entryDx=0;entryDy=0;" edge="1" parent="1" source="3DccciUra17WeY1O9k2c-8" target="3DccciUra17WeY1O9k2c-7">
          <mxGeometry relative="1" as="geometry" />
        </mxCell>
        <mxCell id="3DccciUra17WeY1O9k2c-8" value="i" style="strokeWidth=2;html=1;shape=mxgraph.flowchart.display;whiteSpace=wrap;" vertex="1" parent="1">
          <mxGeometry x="364" y="300" width="100" height="60" as="geometry" />
        </mxCell>
        <mxCell id="3DccciUra17WeY1O9k2c-11" value="V" style="text;html=1;align=center;verticalAlign=middle;resizable=0;points=[];autosize=1;strokeColor=none;fillColor=none;" vertex="1" parent="1">
          <mxGeometry x="405" y="265" width="30" height="30" as="geometry" />
        </mxCell>
        <mxCell id="3DccciUra17WeY1O9k2c-13" value="F" style="text;html=1;align=center;verticalAlign=middle;resizable=0;points=[];autosize=1;strokeColor=none;fillColor=none;" vertex="1" parent="1">
          <mxGeometry x="305" y="195" width="30" height="30" as="geometry" />
        </mxCell>
        <mxCell id="3DccciUra17WeY1O9k2c-14" value="Fim" style="strokeWidth=2;html=1;shape=mxgraph.flowchart.terminator;whiteSpace=wrap;" vertex="1" parent="1">
          <mxGeometry x="225" y="450" width="80" height="40" as="geometry" />
        </mxCell>
      </root>
    </mxGraphModel>
  </diagram>
</mxfile>
